<?xml version="1.0"?>
<svg xmlns="http://www.w3.org/2000/svg" height="512px" viewBox="-48 0 464 464" width="512px" class=""><g><path d="m312.007812 416h-48.007812c-4.414062 0-8 3.585938-8 8s3.585938 8 8 8h48.007812c4.417969 0 8-3.585938 8-8s-3.582031-8-8-8zm0 0" data-original="#000000" class="active-path" data-old_color="#FDFBFB" fill="#FCF9F9"/><path d="m248 448h16v16h-16zm0 0" data-original="#000000" class="active-path" data-old_color="#FDFBFB" fill="#FCF9F9"/><path d="m240 328c0-2.816406.574219-5.488281 1.472656-8h-14.160156l-29.65625 29.65625-11.3125-11.3125 34.34375-34.34375h51.3125c4.414062 0 8-3.585938 8-8s-3.585938-8-8-8h-65.375c-2.105469 0-4.167969.847656-5.65625 2.34375l-29.65625 29.65625h-59.3125v96h50.425781l21.980469 14.65625c1.320312.878906 2.851562 1.34375 4.441406 1.34375h52.632813c-.894531-2.511719-1.472657-5.183594-1.472657-8 0-6.167969 2.40625-11.742188 6.238282-16-3.839844-4.257812-6.238282-9.832031-6.238282-16s2.40625-11.742188 6.238282-16c-3.839844-4.257812-6.238282-9.832031-6.238282-16s2.40625-11.742188 6.238282-16c-3.839844-4.257812-6.246094-9.832031-6.246094-16zm0 0" data-original="#000000" class="active-path" data-old_color="#FDFBFB" fill="#FCF9F9"/><path d="m88 304h-88v128h88c4.414062 0 8-3.585938 8-8v-112c0-4.40625-3.585938-8-8-8zm0 0" data-original="#000000" class="active-path" data-old_color="#FDFBFB" fill="#FCF9F9"/><path d="m312.007812 384h-48.007812c-4.414062 0-8 3.585938-8 8s3.585938 8 8 8h48.007812c4.417969 0 8-3.585938 8-8s-3.582031-8-8-8zm0 0" data-original="#000000" class="active-path" data-old_color="#FDFBFB" fill="#FCF9F9"/><path d="m256 240c-2.703125 0-5.34375-.238281-8-.40625v32.40625h16v-32.40625c-2.65625.167969-5.296875.40625-8 .40625zm0 0" data-original="#000000" class="active-path" data-old_color="#FDFBFB" fill="#FCF9F9"/><path d="m312.007812 320h-48.007812c-4.414062 0-8 3.585938-8 8s3.585938 8 8 8h48.007812c4.417969 0 8-3.585938 8-8s-3.582031-8-8-8zm0 0" data-original="#000000" class="active-path" data-old_color="#FDFBFB" fill="#FCF9F9"/><path d="m256 156.6875 42.0625-42.0625c3.824219-3.824219 5.9375-8.921875 5.9375-14.34375 0-11.175781-9.105469-20.28125-20.28125-20.28125-5.421875 0-10.511719 2.113281-14.34375 5.9375l-13.375 13.375-13.375-13.375c-3.832031-3.832031-8.921875-5.9375-14.34375-5.9375-11.175781 0-20.28125 9.105469-20.28125 20.28125 0 5.421875 2.113281 10.511719 5.9375 14.34375zm0 0" data-original="#000000" class="active-path" data-old_color="#FDFBFB" fill="#FCF9F9"/><path d="m312.007812 352h-48.007812c-4.414062 0-8 3.585938-8 8s3.585938 8 8 8h48.007812c4.417969 0 8-3.585938 8-8s-3.582031-8-8-8zm0 0" data-original="#000000" class="active-path" data-old_color="#FDFBFB" fill="#FCF9F9"/><path d="m256 0c-61.761719 0-112 50.238281-112 112s50.238281 112 112 112 112-50.238281 112-112-50.238281-112-112-112zm0 208c-52.9375 0-96-43.0625-96-96 0-20.535156 6.480469-40.175781 18.742188-56.824219l12.875 9.503907c-10.21875 13.863281-15.617188 30.230468-15.617188 47.320312 0 44.113281 35.886719 80 80 80 20.726562 0 40.40625-7.945312 55.40625-22.382812l11.097656 11.527343c-18.007812 17.320313-41.625 26.855469-66.503906 26.855469zm-64-107.71875c0-20.007812 16.273438-36.28125 36.28125-36.28125 9.695312 0 18.808594 3.777344 25.65625 10.625l2.0625 2.0625 2.0625-2.0625c6.847656-6.847656 15.960938-10.625 25.65625-10.625 20.007812 0 36.28125 16.273438 36.28125 36.28125 0 9.695312-3.777344 18.808594-10.625 25.65625l-53.375 53.375-53.375-53.375c-6.847656-6.847656-10.625-15.960938-10.625-25.65625zm141.257812 68.542969-12.875-9.503907c10.21875-13.855468 15.617188-30.222656 15.617188-47.320312 0-44.113281-35.886719-80-80-80-20.726562 0-40.40625 7.945312-55.40625 22.382812l-11.097656-11.527343c18-17.3125 41.625-26.855469 66.503906-26.855469 52.9375 0 96 43.0625 96 96 0 20.542969-6.480469 40.183594-18.742188 56.824219zm0 0" data-original="#000000" class="active-path" data-old_color="#FDFBFB" fill="#FCF9F9"/></g> </svg>
