<?xml version="1.0" encoding="iso-8859-1"?>
<!-- Generator: Adobe Illustrator 19.0.0, SVG Export Plug-In . SVG Version: 6.00 Build 0)  -->
<svg version="1.1" id="Capa_1" xmlns="http://www.w3.org/2000/svg" xmlns:xlink="http://www.w3.org/1999/xlink" x="0px" y="0px"
	 viewBox="0 0 512.001 512.001" style="enable-background:new 0 0 512.001 512.001;" xml:space="preserve">
<path style="fill:#BCE7EC;" d="M286.444,185.944l15.086,9.52c0.953,0.602,2.158,0.637,3.144,0.093c0.987-0.545,1.6-1.582,1.6-2.709
	v-19.525l11.297-23.204c0.444-0.913,0.412-1.986-0.085-2.871c-0.498-0.885-1.398-1.47-2.411-1.563l-29.31-2.72l-7.589-13.837
	c-0.514-0.936-1.474-1.542-2.54-1.601c-1.066-0.06-2.087,0.434-2.702,1.307l-13.799,19.59l-21.132,9.876
	c-0.815,0.381-1.425,1.098-1.668,1.964s-0.098,1.796,0.398,2.546l12.578,18.997c1.641,2.479,4.411,3.975,7.383,3.99L286.444,185.944
	z"/>
<path style="fill:#414B82;" d="M490.83,472.333c2.687,0,5.419-0.515,8.058-1.602c10.812-4.455,15.965-16.83,11.51-27.642
	l-36.802-89.322l-3.025-74.639c-0.49-11.684-10.356-20.761-22.039-20.269c-11.684,0.489-20.758,10.356-20.269,22.039l3.181,78.369
	c0.103,2.467,0.638,4.897,1.578,7.181l38.223,92.773C474.614,467.393,482.507,472.333,490.83,472.333z"/>
<path style="fill:#343E6B;" d="M357.976,472.33c10.425,0,19.507-7.701,20.953-18.32l13.578-99.74l30.495-78.016
	c4.257-10.891-1.121-23.171-12.012-27.428c-10.891-4.258-23.171,1.121-27.428,12.012l-31.414,80.366
	c-0.611,1.562-1.033,3.19-1.259,4.852l-13.918,102.241c-1.578,11.586,6.537,22.258,18.124,23.835
	C356.062,472.266,357.025,472.33,357.976,472.33z"/>
<path style="fill:#64AFFF;" d="M373.535,286.456h97.337V154.453c0-14.209-11.518-25.728-25.728-25.728h-45.881
	c-14.209,0-25.728,11.518-25.728,25.728L373.535,286.456L373.535,286.456z"/>
<g>
	<circle style="fill:#FFB69E;" cx="416.078" cy="77.759" r="38.091"/>
	<path style="fill:#FFB69E;" d="M359.253,206.94c4.291,1.14,8.872,0.554,12.748-1.659l65.66-37.478
		c8.125-4.637,10.951-14.983,6.314-23.107c-4.637-8.124-14.983-10.952-23.107-6.314l-59.17,33.773l-62.092-20.048
		c-8.884-2.865-18.449,2.012-21.323,10.915s2.012,18.449,10.915,21.323l69.202,22.343
		C358.682,206.781,358.966,206.864,359.253,206.94z"/>
</g>
<path style="fill:#78BEFF;" d="M388.539,156.835l32.328-18.452c8.124-4.638,18.47-1.811,23.107,6.314
	c4.637,8.124,1.811,18.469-6.314,23.107l-34.18,19.509L388.539,156.835z"/>
<path style="fill:#42464A;" d="M152.024,375.233c-2.823-8.6-10.851-14.41-19.897-14.41c-0.02,0-0.041,0-0.062,0l-48.03-0.406l0,0
	l1.28-86.307c0.115-7.788-2.883-15.301-8.33-20.869c-5.447-5.568-12.892-8.731-20.681-8.787l-12.517-0.09
	c-11.604-0.083-22.76,4.477-30.984,12.665C4.578,265.214-0.032,276.35,0,287.955l0.232,84.911
	c0.021,7.734,3.116,15.142,8.603,20.593c3.477,3.454,7.735,5.937,12.355,7.289c2.145,0.749,4.438,1.175,6.834,1.175
	c0.021,0,41.178,0,41.178,0l-44.656,32.561c-9.336,6.826-11.37,19.929-4.543,29.266c4.101,5.609,10.467,8.582,16.921,8.582
	c4.289,0,8.617-1.313,12.344-4.039l95.216-69.626C151.811,393.314,154.853,383.852,152.024,375.233z"/>
<circle style="fill:#FFB69E;" cx="73.73" cy="197.037" r="36.485"/>
<path style="fill:#414B82;" d="M29.487,401.925c-7.734,0.031-15.163-3.014-20.651-8.465c-5.487-5.451-8.582-12.859-8.603-20.593
	L0,287.954c-0.032-11.604,4.577-22.74,12.802-30.928c8.224-8.188,19.38-12.748,30.984-12.665l12.517,0.089
	c7.789,0.056,15.234,3.218,20.681,8.787c5.447,5.568,8.446,13.081,8.33,20.869l-1.28,86.307L29.487,401.925z"/>
<path style="fill:#B2552E;" d="M214.678,471.797c10.04,0,19.401-5.067,24.889-13.473c5.489-8.406,6.363-19.015,2.326-28.206
	l-19.267-43.856c-3.924-8.932-2.808-19.32,2.936-27.204c1.205-1.655,1.849-3.397,1.849-5.195c0-10.828-23.306-19.605-52.056-19.605
	c-28.749,0-52.055,8.777-52.055,19.605c0,1.799,0.644,3.541,1.849,5.195c5.752,7.895,6.865,18.261,2.936,27.204l-19.267,43.856
	c-4.038,9.192-3.163,19.8,2.326,28.206c5.489,8.406,14.85,13.474,24.89,13.474H214.678z"/>
<g>
	<path style="fill:#FFB69E;" d="M141.144,351.184c-1.093,0.127-2.213,0.152-3.352,0.066l-66.042-4.99
		c-9.61-0.726-16.813-9.106-16.087-18.717s9.103-16.813,18.717-16.087l66.042,4.99c9.61,0.726,16.813,9.106,16.087,18.717
		C155.869,343.637,149.28,350.237,141.144,351.184z"/>
	<path style="fill:#FFB69E;" d="M75.079,346.198c-7.331,0.853-14.686-3.04-17.902-10.121L30.631,277.65
		c-3.987-8.775-0.105-19.121,8.669-23.107c8.772-3.988,19.121-0.105,23.107,8.669l26.546,58.427
		c3.987,8.775,0.105,19.121-8.669,23.107C78.589,345.518,76.834,345.994,75.079,346.198z"/>
</g>
<path style="fill:#4A5594;" d="M46.126,311.754l32.834-12.109l-16.553-36.431c-3.986-8.775-14.334-12.659-23.107-8.669
	c-8.775,3.986-12.657,14.331-8.669,23.107L46.126,311.754z"/>
<g>
</g>
<g>
</g>
<g>
</g>
<g>
</g>
<g>
</g>
<g>
</g>
<g>
</g>
<g>
</g>
<g>
</g>
<g>
</g>
<g>
</g>
<g>
</g>
<g>
</g>
<g>
</g>
<g>
</g>
</svg>
